<?xml version="1.0" encoding="UTF-8" standalone="no"?>
<svg xmlns="http://www.w3.org/2000/svg" viewBox="0 0 101.30859 101.30859" height="101.30859" width="101.30859">
  <path d="M 50.654297,0 C 22.703138,0 0,22.703138 0,50.654297 0,78.605454 22.703138,101.30859 50.654297,101.30859 78.605456,101.30859 101.3086,78.605454 101.3086,50.654297 101.3086,22.703138 78.605456,0 50.654297,0 Z m 0,4.199219 c 25.68131,0 46.455078,20.773768 46.455078,46.455078 0,12.691887 -5.080041,24.179091 -13.3125,32.558597 -5.07183,-3.34398 -11.276683,-5.4647 -16.933594,-7.878909 -2.402023,-1.366998 -3.498022,-2.464374 -3.908203,-3.160157 -0.123645,-0.209737 -0.01706,-0.421081 -0.07226,-0.597656 4.840651,-0.539423 9.799551,-1.304516 13.976562,-5.238281 l 1.023438,-0.962891 -0.5,-1.3125 C 76.449858,61.612817 75.966964,57.22865 75.75,52.400391 75.533036,47.572132 75.521388,42.257504 75.222656,37.548828 l -0.002,-0.0293 -0.002,-0.0293 c -0.4605,-5.026362 -0.320687,-10.811268 -4.068359,-16.8125 l -0.04883,-0.08008 -0.05859,-0.07617 c -2.170583,-2.86414 -5.527316,-5.713568 -11.296875,-5.720704 -2.64566,-2.272356 -5.856044,-2.866066 -8.677735,-2.824218 -1.012343,0.01501 -1.965568,0.09521 -2.818359,0.177734 -0.0021,1.47e-4 -0.0038,-1.48e-4 -0.0059,0 -5.780151,0.416488 -9.965415,2.347824 -12.94336,5.283203 -2.979001,2.936421 -4.737712,6.6969 -6.345703,10.697266 l -0.04687,0.115234 -0.03125,0.119141 C 26.59938,36.78584 26.578904,44.288293 26.464716,50.222649 26.350527,56.157006 25.968328,60.28677 24.132685,62.369134 l -0.888672,1.007812 0.542968,1.228516 c 0.970719,2.199225 3.092066,3.472443 5.863282,4.560547 2.356642,0.925323 5.439021,1.651717 8.988281,2.279297 -0.08788,0.516774 -0.245201,0.942154 -0.486328,1.308593 -0.416386,0.63278 -1.15774,1.227367 -2.109375,1.845703 -5.4261,1.817572 -9.802149,3.501242 -13.015625,5.074212 -2.4245,1.18678 -4.255586,2.24283 -5.564453,3.48829 C 9.2593727,74.786934 4.19909,63.320804 4.19909,50.65429 4.19909,24.97298 24.972859,4.199212 50.654169,4.199212 Z m 0.40625,11.982422 c 2.443473,-0.0424 4.782856,0.357741 6.443359,2.097656 l 0.664063,0.695312 0.960937,-0.04687 c 5.040119,-0.251475 6.493158,1.408451 8.488282,4.035156 3.039177,4.906677 2.930849,9.562337 3.416015,14.880859 0.284668,4.507114 0.297214,9.798725 0.519532,14.746094 0.192018,4.273135 0.61019,8.111548 1.529296,11.333984 -3.473852,2.751039 -7.598433,3.266407 -12.658203,3.794922 l -1.578125,0.164063 -0.271484,1.564453 c -0.236387,1.356541 -0.230156,3.173562 0.763672,4.859375 0.993827,1.685813 2.721658,3.144049 5.52539,4.726559 l 0.09961,0.0566 0.105468,0.0449 c 5.514398,2.36203 11.182155,4.38585 15.53711,7.03711 -8.084445,6.82214 -18.529664,10.9375 -29.951172,10.9375 -11.468868,0 -21.952544,-4.15044 -30.050781,-11.02344 0.841938,-0.69724 2.235608,-1.64308 4.269531,-2.63867 3.031774,-1.48403 7.33124,-3.16913 12.880859,-5.01367 l 0.248047,-0.082 0.220703,-0.14063 c 1.196889,-0.76513 2.485611,-1.70185 3.4375,-3.14843 0.95189,-1.446581 1.433887,-3.378449 1.185547,-5.580078 l -0.179687,-1.59375 -1.583985,-0.246094 c -4.23468,-0.657806 -7.593353,-1.482405 -9.896484,-2.386719 -1.550273,-0.608705 -2.375356,-1.205664 -2.914062,-1.701171 2.132788,-3.52857 2.292516,-8.049816 2.392578,-13.25 0.114572,-5.954323 0.157225,-12.950138 2.238281,-20.714844 1.529925,-3.790441 3.096726,-6.943354 5.347656,-9.162109 2.275049,-2.242531 5.261081,-3.721858 10.300781,-4.083985 l 0.02539,-0.002 0.02734,-0.0039 c 0.816259,-0.07947 1.64254,-0.142116 2.457031,-0.15625 z"/>
</svg>
