<?xml version="1.0" encoding="UTF-8" standalone="no"?>
<svg xmlns="http://www.w3.org/2000/svg" viewBox="0 0 102.30859 102.30859" height="102.30859" width="102.30859">
  <path d="M 51.154297,0 C 22.926998,0 0,22.926998 0,51.154297 0,79.381596 22.926998,102.3086 51.154297,102.3086 79.381596,102.3086 102.3086,79.381596 102.3086,51.154297 102.3086,22.926998 79.381596,0 51.154297,0 Z m 0,4.199219 c 25.957451,0 46.955078,20.997627 46.955078,46.955078 0,12.866757 -5.164137,24.510166 -13.529297,32.986328 C 78.48414,79.082811 74.138017,79.042655 69.96875,77.332031 67.11041,75.923493 64.982698,74.182993 63.3125,72.197266 l -0.08203,-7.214844 c 2.635084,-2.232757 3.794723,-5.709666 4.630859,-9.597656 1.880221,-1.506399 3.268529,-3.308859 3.626953,-5.460938 0.363991,-2.185499 -0.265013,-4.436229 -1.367187,-6.787109 1.40187,-5.82512 2.583824,-10.741996 1.253906,-18.279297 l -0.0625,-0.353516 -0.175781,-0.310547 C 68.90035,20.217007 65.88649,18.445638 63.740236,17.5625 62.810657,17.179998 62.184102,16.964321 61.804689,16.804688 l 0.03125,-0.525391 -0.962891,-0.673828 C 57.633164,13.339361 53.906898,12.833217 49.363281,12.966797 l -0.05664,0.002 -0.05664,0.0039 c -7.016478,0.589018 -13.36252,3.533403 -16.828125,10.44336 l -0.0625,0.123047 -0.04492,0.130859 c -2.975227,8.573904 -0.573018,15.615913 -0.08984,19.798828 -0.581709,1.583831 -1.253792,3.34364 -1.142578,5.453125 0.108894,2.065461 1.328107,4.186229 3.453125,6.09961 0.435838,3.94901 2.397491,7.006577 4.5625,9.748046 l -0.185547,8.117188 c -3.642685,3.023179 -7.701194,4.863138 -11.671874,6.419922 -3.495046,1.370301 -6.917345,2.560271 -9.740235,4.59375 C 9.2716282,75.444736 4.1992188,63.901613 4.1992188,51.154297 4.1992188,25.196846 25.196846,4.199219 51.154297,4.199219 Z m -0.201172,12.953125 c 3.130514,0.02838 5.225159,0.514726 7.128906,1.732422 0.07511,0.142193 0.04337,0.332413 0.136719,0.453125 0.440195,0.569207 0.94344,0.869455 1.384766,1.09375 0.882652,0.448589 1.682792,0.663288 2.539062,1.015625 1.651313,0.67948 3.450896,1.718841 5.142578,4.568359 1.127299,6.827269 0.07262,10.752769 -1.380859,16.802734 l -0.181641,0.759766 0.357422,0.69336 c 1.139438,2.211055 1.456643,3.815969 1.265625,4.96289 -0.191017,1.146921 -0.831828,2.144673 -2.542968,3.333984 l -0.689454,0.480469 -0.167968,0.822266 c -0.907363,4.416244 -2.039723,7.256948 -3.927735,8.423828 l -1.009765,0.623047 0.121093,10.873047 0.441407,0.560547 c 2.135816,2.720645 4.990123,5.014508 8.595703,6.78125 l 0.05859,0.0293 0.06055,0.02539 c 4.903128,2.034509 8.039717,1.699045 13.183594,5.830078 -8.177177,6.916497 -18.750661,11.091794 -30.314453,11.091794 -11.654032,0 -22.30079,-4.242229 -30.503906,-11.255859 2.112351,-1.304855 4.933067,-2.386025 8.123047,-3.636719 4.285798,-1.680332 9.193428,-3.736574 13.607421,-7.650391 l 0.683594,-0.607421 0.265625,-11.525391 -0.486328,-0.599609 c -2.385418,-2.938548 -4.075342,-5.458156 -4.25,-8.839844 l -0.05078,-0.964844 -0.765625,-0.589844 c -2.064797,-1.589096 -2.44168,-2.632072 -2.5,-3.738281 -0.05832,-1.106209 0.437056,-2.55131 1.074219,-4.324219 l 0.158203,-0.441406 -0.04492,-0.466797 c -0.492579,-5.177516 -2.70312,-10.945362 -0.210938,-18.285156 2.792829,-5.458618 7.214233,-7.494588 13.291016,-8.015625 0.491927,-0.01381 0.960987,-0.01968 1.408203,-0.01563 z"/>
</svg>
